HIERARCHY
ROOT root
{
	OFFSET	0	13.1	24.9
	CHANNELS 6  Xposition Yposition Zposition Xrotation Yrotation Zrotation
	JOINT spine_1
	{
		OFFSET	0	9.99999	0
		CHANNELS 3  Xrotation Yrotation Zrotation
		JOINT spine_2
		{
			OFFSET	0	112	-10
			CHANNELS 3  Xrotation Yrotation Zrotation
			JOINT spine_3
			{
				OFFSET	0	206.5	19.3
				CHANNELS 3  Xrotation Yrotation Zrotation
				JOINT spine_4
				{
					OFFSET	0	110.4	14.6
					CHANNELS 3  Xrotation Yrotation Zrotation
					JOINT neck_1
					{
						OFFSET	0	71.8	-50.3
						CHANNELS 3  Xrotation Yrotation Zrotation
						JOINT neck_2
						{
							OFFSET	0	86.2	-25.8
							CHANNELS 3  Xrotation Yrotation Zrotation
							JOINT head_ee
							{
								OFFSET	0	179.8	-8.7
								CHANNELS 3  Xrotation Yrotation Zrotation
								End Site
								{
									OFFSET	1	0	0
								}
							}
						}
					}
					JOINT left_clavicle
					{
						OFFSET	-43.2	22.4	-70.8
						CHANNELS 3  Xrotation Yrotation Zrotation
						JOINT left_shoulder
						{
							OFFSET	-93.9	-5.79999	48.7
							CHANNELS 3  Xrotation Yrotation Zrotation
							JOINT left_elbow
							{
								OFFSET	-291.4	-30.8	15.2
								CHANNELS 3  Xrotation Yrotation Zrotation
								JOINT left_lowarm_twist
								{
									OFFSET	-110.7	-3.89999	13.6
									CHANNELS 3  Xrotation Yrotation Zrotation
									JOINT left_hand
									{
										OFFSET	-110.7	-3.89999	13.6
										CHANNELS 3  Xrotation Yrotation Zrotation
										JOINT left_ee
										{
											OFFSET	-80.8	-5.10001	12.1
											CHANNELS 3  Xrotation Yrotation Zrotation
											End Site
											{
												OFFSET	1	0	0
											}
										}
									}
								}
							}
						}
					}
					JOINT right_clavicle
					{
						OFFSET	43.2	22.4	-70.8
						CHANNELS 3  Xrotation Yrotation Zrotation
						JOINT right_shoulder
						{
							OFFSET	93.9	-5.79999	48.7
							CHANNELS 3  Xrotation Yrotation Zrotation
							JOINT right_elbow
							{
								OFFSET	291.4	-30.8	15.2
								CHANNELS 3  Xrotation Yrotation Zrotation
								JOINT right_lowarm_twist
								{
									OFFSET	110.7	-3.89999	13.6
									CHANNELS 3  Xrotation Yrotation Zrotation
									JOINT right_hand
									{
										OFFSET	110.7	-3.89999	13.6
										CHANNELS 3  Xrotation Yrotation Zrotation
										JOINT right_ee
										{
											OFFSET	80.8	-5.10001	12.1
											CHANNELS 3  Xrotation Yrotation Zrotation
											End Site
											{
												OFFSET	1	0	0
											}
										}
									}
								}
							}
						}
					}
				}
			}
		}
	}
	JOINT left_hip
	{
		OFFSET	-82.8	-127.5	0.300001
		CHANNELS 3  Xrotation Yrotation Zrotation
		JOINT left_knee
		{
			OFFSET	-28.2	-396.7	2.2
			CHANNELS 3  Xrotation Yrotation Zrotation
			JOINT left_ankle
			{
				OFFSET	-11.7	-411.3	35.4
				CHANNELS 3  Xrotation Yrotation Zrotation
				JOINT left_toes
				{
					OFFSET	0	-60	-88.6
					CHANNELS 3  Xrotation Yrotation Zrotation
					JOINT left_foot_ee
					{
						OFFSET	-22.5	-16.5	-42.2
						CHANNELS 3  Xrotation Yrotation Zrotation
						End Site
						{
							OFFSET	1	0	0
						}
					}
				}
			}
		}
	}
	JOINT right_hip
	{
		OFFSET	82.8	-127.5	0.300001
		CHANNELS 3  Xrotation Yrotation Zrotation
		JOINT right_knee
		{
			OFFSET	28.2	-396.7	2.2
			CHANNELS 3  Xrotation Yrotation Zrotation
			JOINT right_ankle
			{
				OFFSET	11.7	-411.3	35.4
				CHANNELS 3  Xrotation Yrotation Zrotation
				JOINT right_toes
				{
					OFFSET	0	-60	-88.6
					CHANNELS 3  Xrotation Yrotation Zrotation
					JOINT right_foot_ee
					{
						OFFSET	22.5	-16.5	-42.2
						CHANNELS 3  Xrotation Yrotation Zrotation
						End Site
						{
							OFFSET	1	0	0
						}
					}
				}
			}
		}
	}
}
MOTION
Frames: 16
Frame Time: 0.02
3452.07178462 727.084 -1511.78397 176.725971611 76.7593317255 -173.002844339 0.0440901 -0.0906523 -1.66776 0.0456375 0.0156401 -1.67015 0.0458404 0.365112 -1.62983 0.042148 0.103166 -1.66703 -5.83068 10.295 4.21287 -5.76632 15.9185 6.15431 -0.0 0.0 -0.0 3.61414 23.9932 7.68327 -22.5228 -42.3718 57.1263 1.04556 -27.3808 0.254701 -14.3873 -0.722887 1.68679 2.30013 0.839507 15.8939 -0.0 0.0 -0.0 12.2077 4.33784 -24.5934 10.1607 -31.3381 -59.1885 1.2557 31.8818 -0.358679 -35.3352 2.46928 -3.7059 9.43725 24.1294 -60.0326 0.0 0.0 0.0 13.3329 -4.43373 -10.2092 -31.233 -0.00513182 4.73426 37.7852 4.94377 -4.66091 -36.0757 0.0 0.0 -0.0 0.0 -0.0 -7.78944 16.6665 -12.1082 1.45982 0.0628611 0.215185 41.5843 -14.3498 5.06222 -34.2585 0.0 0.0 0.0 0.0 0.0 
3453.58897299 727.084 -1516.46661957 176.082626828 78.9613219716 -172.344905725 0.0440901 -0.0906523 -1.66776 0.0456375 0.0156401 -1.67015 0.0458404 0.365112 -1.62983 0.042148 0.103166 -1.66703 -5.83068 10.295 4.21287 -5.76632 15.9185 6.15431 -0.0 0.0 -0.0 3.61414 23.9932 7.68327 -22.5228 -42.3718 57.1263 1.04556 -27.3808 0.254701 -14.3873 -0.722887 1.68679 2.30013 0.839507 15.8939 -0.0 0.0 -0.0 12.2077 4.33784 -24.5934 10.1607 -31.3381 -59.1885 1.2557 31.8818 -0.358679 -35.3352 2.46928 -3.7059 9.43725 24.1294 -60.0326 0.0 0.0 0.0 13.3329 -4.43373 -10.2092 -31.233 -0.00513182 4.73426 37.7852 4.94377 -4.66091 -36.0757 0.0 0.0 -0.0 0.0 -0.0 -7.78944 16.6665 -12.1082 1.45982 0.0628611 0.215185 41.5843 -14.3498 5.06222 -34.2585 0.0 0.0 0.0 0.0 0.0 
3442.9088609 730.05 -1514.10306686 177.539372578 77.292444986 -173.73177526 0.159795 -0.16761 -1.71629 0.161432 -0.0580755 -1.72347 0.163893 0.300678 -1.69804 0.15987 0.028772 -1.72421 -6.09018 10.3508 5.17132 -6.01145 15.3578 7.15429 -0.0 0.0 -0.0 3.63234 23.9763 7.7082 -24.2303 -40.5621 56.4107 0.897895 -23.9788 0.190683 -14.196 -0.710537 1.66565 2.27199 1.43068 15.9308 -0.0 0.0 -0.0 12.1279 5.16334 -24.4543 10.4061 -29.8543 -60.3017 1.30433 32.8661 -0.384718 -35.0878 2.44454 -3.68601 9.40572 24.0839 -59.7337 0.0 0.0 0.0 16.1136 -5.96382 -8.81446 -31.0315 0.00317679 4.70446 36.9003 6.33371 -4.57991 -36.3502 0.0 0.0 -0.0 0.0 -0.0 -8.60289 16.6821 -12.5417 1.70664 0.0740314 0.251411 41.3484 -12.9488 5.02285 -32.7384 0.0 0.0 0.0 0.0 0.0 
3430.58726244 734.935 -1510.22791553 179.0598233 78.0691372344 -175.350059577 0.313461 -0.0474294 -1.74861 0.31516 0.0639182 -1.74809 0.313779 0.420737 -1.69792 0.309786 0.147345 -1.74304 -7.00345 10.4073 4.31943 -6.96464 16.2368 6.42037 -0.0 0.0 -0.0 3.43863 23.8982 7.44215 -25.164 -39.1228 57.4668 0.699987 -19.1242 0.117919 -12.9216 -0.630081 1.52379 2.01497 2.9123 14.7336 -0.0 0.0 -0.0 11.9477 4.55319 -24.0295 9.76376 -26.1093 -62.1402 1.55792 37.6564 -0.531243 -34.9706 2.43285 -3.67655 9.65987 23.7079 -63.3508 0.0 0.0 0.0 17.9881 -7.24164 -8.20932 -32.3574 -0.0534257 4.90005 31.4923 6.35921 -4.04558 -33.4601 0.0 0.0 -0.0 0.0 -0.0 -10.2156 16.5703 -12.3317 3.72551 0.171247 0.545873 35.9889 -19.9357 4.63974 -31.1955 0.0 0.0 0.0 0.0 0.0 
3417.86381589 733.851 -1505.58776104 176.917009491 77.3463547447 -173.582308303 0.356035 0.0450389 -1.52949 0.357325 0.142261 -1.52352 0.353899 0.450382 -1.46238 0.350978 0.213802 -1.51514 -7.52201 10.3727 4.18933 -7.49914 16.3467 6.34829 -0.0 0.0 -0.0 3.60877 23.9685 7.67586 -26.7442 -37.1893 56.869 0.539542 -14.964 0.0708603 -12.022 -0.575201 1.4226 1.94516 4.94789 15.032 -0.0 0.0 -0.0 11.9763 4.15021 -24.074 10.2472 -22.8129 -63.8608 1.66996 39.596 -0.601193 -34.6029 2.39632 -3.64671 9.50736 23.4129 -61.9043 0.0 0.0 0.0 19.629 -8.44652 -7.56189 -31.3736 -0.0109932 4.75504 27.6971 5.62785 -3.63725 -32.0907 0.0 0.0 -0.0 0.0 -0.0 -11.1311 16.4644 -12.0632 3.25992 0.147905 0.478265 35.7096 -19.2808 4.59843 -29.0503 0.0 0.0 0.0 0.0 0.0 
3411.91757875 733.091 -1504.21071894 178.831792901 77.8301235198 -175.672109751 0.468786 0.0659274 -1.41449 0.469886 0.155792 -1.40743 0.466319 0.437269 -1.34683 0.463854 0.219096 -1.39897 -7.87035 10.0549 5.55661 -7.81672 14.8349 7.66779 -0.0 0.0 -0.0 3.40653 23.3932 7.39352 -27.7388 -35.126 56.9694 0.504287 -14.0261 0.0620358 -10.9737 -0.513269 1.30363 1.66309 8.54663 14.4572 -0.0 0.0 -0.0 11.9084 3.86891 -23.9111 11.1129 -21.4482 -65.72 1.9744 44.3596 -0.804992 -34.8896 2.42479 -3.66999 9.64831 23.443 -63.6208 0.0 0.0 0.0 24.023 -8.98346 -7.44104 -27.937 0.11754 4.24337 23.5674 5.29601 -3.16404 -29.7844 0.0 0.0 -0.0 0.0 -0.0 -12.4946 15.7406 -11.6586 5.15194 0.246176 0.751816 36.7667 -21.3863 4.74991 -28.0409 0.0 0.0 0.0 0.0 0.0 
3403.04113229 731.719 -1500.26920518 -177.090585131 77.1845890772 179.901849841 0.750342 -0.10245 -1.30668 0.751292 -0.0191021 -1.31055 0.751983 0.23992 -1.28855 0.749667 0.0334246 -1.31026 -8.20348 10.7001 5.84457 -8.15273 15.8992 8.1303 -0.0 0.0 -0.0 2.55929 23.8078 6.23603 -27.9707 -33.9976 58.0938 0.455357 -12.7117 0.0507215 -10.2462 -0.471576 1.22042 1.72041 10.1602 15.4203 -0.0 0.0 -0.0 11.5653 4.24942 -23.1775 11.7943 -18.8356 -67.9391 2.1639 46.9823 -0.940583 -36.4291 2.57965 -3.79258 9.60295 22.9352 -63.8369 0.0 0.0 0.0 26.0354 -10.3123 -7.3591 -26.4683 0.163056 4.02257 20.2031 -0.229575 -2.77848 -28.5828 0.0 0.0 -0.0 0.0 -0.0 -12.0228 16.2254 -10.7829 5.6176 0.271747 0.818644 35.3278 -21.0112 4.59559 -27.6109 0.0 0.0 0.0 0.0 0.0 
3392.92902676 724.049 -1499.60402522 -173.060715055 78.1473596527 175.342119129 1.07123 0.0338215 -1.06031 1.07185 0.101219 -1.05601 1.07005 0.302005 -1.01696 1.06863 0.137615 -1.05189 -8.39229 10.9399 5.99292 -8.34333 16.2793 8.35215 -0.0 0.0 -0.0 1.97667 23.4375 5.42148 -28.5954 -33.6825 59.0343 0.367653 -10.3221 0.0332071 -10.974 -0.513284 1.30366 1.77208 12.9878 16.7435 -0.0 0.0 -0.0 11.3701 4.37908 -22.7573 12.4942 -15.4701 -69.9571 2.30521 48.7843 -1.04542 -33.06 2.24513 -3.519 9.80145 23.544 -65.4697 0.0 0.0 0.0 29.4851 -11.3237 -6.42077 -25.4625 0.190954 3.87073 15.0007 0.419053 -2.10892 -25.4477 0.0 0.0 -0.0 0.0 -0.0 -13.0517 16.2437 -10.3345 6.31862 0.311268 0.918859 39.6903 -21.6991 5.04168 -26.6508 0.0 0.0 0.0 0.0 0.0 
3392.77630814 724.049 -1498.46309312 -173.261866077 77.7898868101 175.547786945 1.07123 0.0338215 -1.06031 1.07185 0.101219 -1.05601 1.07005 0.302005 -1.01696 1.06863 0.137615 -1.05189 -8.39229 10.9399 5.99292 -8.34333 16.2793 8.35215 -0.0 0.0 -0.0 1.97667 23.4375 5.42148 -28.5954 -33.6825 59.0343 0.367653 -10.3221 0.0332071 -10.974 -0.513284 1.30366 1.77208 12.9878 16.7435 -0.0 0.0 -0.0 11.3701 4.37908 -22.7573 12.4942 -15.4701 -69.9571 2.30521 48.7843 -1.04542 -33.06 2.24513 -3.519 9.80145 23.544 -65.4697 0.0 0.0 0.0 29.4851 -11.3237 -6.42077 -25.4625 0.190954 3.87073 15.0007 0.419053 -2.10892 -25.4477 0.0 0.0 -0.0 0.0 -0.0 -13.0517 16.2437 -10.3345 6.31862 0.311268 0.918859 39.6903 -21.6991 5.04168 -26.6508 0.0 0.0 0.0 0.0 0.0 
3389.99373649 723.634 -1499.12003337 -165.161885621 79.4857772406 166.982626543 1.3981 0.0471856 -0.792327 1.39845 0.0975062 -0.787719 1.39711 0.24255 -0.755765 1.39634 0.120151 -0.784584 -9.69676 10.349 6.42095 -9.65432 15.1074 8.78524 -0.0 0.0 -0.0 1.7077 23.7484 5.07021 -28.6607 -32.617 59.899 0.3333 -9.37555 0.0273307 -9.55409 -0.4329 1.14077 1.40022 13.9233 14.6288 -0.0 0.0 -0.0 11.7301 5.11417 -23.5732 14.3476 -14.8983 -70.8071 2.37958 49.6834 -1.10175 -33.7249 2.30986 -3.57453 9.66116 23.5978 -63.5406 0.0 0.0 0.0 31.3598 -10.8481 -6.60532 -23.9334 0.228244 3.63905 12.1914 -0.0838274 -1.73547 -27.0254 0.0 0.0 -0.0 0.0 -0.0 -12.2134 16.0043 -9.56939 7.33228 0.370583 1.06291 40.902 -22.0357 5.16351 -26.0985 0.0 0.0 0.0 0.0 0.0 
3382.42057246 718.078 -1496.73596108 -161.102427548 79.01444929 162.75507326 1.6461 -0.00103933 -0.664664 1.64635 0.0412561 -0.663383 1.64587 0.161317 -0.644792 1.64529 0.0574615 -0.662176 -10.4407 10.3746 6.56178 -10.4101 15.1946 9.01666 -0.0 0.0 -0.0 1.46153 23.2539 4.70175 -28.7232 -32.3315 60.3417 0.233203 -6.58986 0.0134258 -9.37671 -0.423143 1.12029 1.36545 15.4648 14.9313 -0.0 0.0 -0.0 11.6398 5.44777 -23.3864 15.2259 -13.2794 -71.9345 2.49853 51.0554 -1.19337 -33.3398 2.27229 -3.54246 9.65779 23.6752 -63.3757 0.0 0.0 0.0 32.8616 -11.0604 -6.11943 -21.9164 0.267949 3.3321 10.3519 -1.64192 -1.49006 -26.0449 0.0 0.0 -0.0 0.0 -0.0 -11.8166 15.9136 -9.23058 7.28658 0.367853 1.05644 42.3251 -21.9063 5.28847 -25.5951 0.0 0.0 0.0 0.0 0.0 
3382.27249948 718.078 -1495.40318413 -161.743623407 78.6375902878 163.408655171 1.6461 -0.00103933 -0.664664 1.64635 0.0412561 -0.663383 1.64587 0.161317 -0.644792 1.64529 0.0574615 -0.662176 -10.4407 10.3746 6.56178 -10.4101 15.1946 9.01666 -0.0 0.0 -0.0 1.46153 23.2539 4.70175 -28.7232 -32.3315 60.3417 0.233203 -6.58986 0.0134258 -9.37671 -0.423143 1.12029 1.36545 15.4648 14.9313 -0.0 0.0 -0.0 11.6398 5.44777 -23.3864 15.2259 -13.2794 -71.9345 2.49853 51.0554 -1.19337 -33.3398 2.27229 -3.54246 9.65779 23.6752 -63.3757 0.0 0.0 0.0 32.8616 -11.0604 -6.11943 -21.9164 0.267949 3.3321 10.3519 -1.64192 -1.49006 -26.0449 0.0 0.0 -0.0 0.0 -0.0 -11.8166 15.9136 -9.23058 7.28658 0.367853 1.05644 42.3251 -21.9063 5.28847 -25.5951 0.0 0.0 0.0 0.0 0.0 
3366.58212644 710.689 -1492.81775318 -162.025724261 78.0311505587 163.637392961 1.75908 0.0155711 -0.622393 1.7593 0.0551432 -0.620141 1.75869 0.165919 -0.600073 1.75819 0.0690687 -0.618745 -10.9914 10.4968 6.29466 -10.9894 15.7012 8.86279 -0.0 0.0 -0.0 1.03979 23.3749 4.13063 -30.0662 -31.564 59.9597 0.251695 -7.10727 0.0156309 -9.27977 -0.417838 1.10908 1.30709 16.5772 14.9326 -0.0 0.0 -0.0 11.6466 6.4437 -23.4319 16.1745 -12.3641 -72.4681 2.53889 51.5031 -1.22485 -33.2455 2.26312 -3.53457 9.58699 23.6965 -62.4564 0.0 0.0 0.0 35.0536 -11.0811 -5.98046 -17.216 0.318392 2.61285 11.3978 -2.71809 -1.63957 -24.6547 0.0 0.0 -0.0 0.0 -0.0 -11.964 16.3005 -8.77224 6.19303 0.304097 0.90094 42.8435 -18.9193 5.25675 -25.351 0.0 0.0 0.0 0.0 0.0 
3325.91416086 699.808 -1471.48467796 -146.568379258 77.9945543897 148.77735946 2.64063 -0.0399137 -0.810926 2.641 0.0117668 -0.811822 2.64075 0.145492 -0.798766 2.63986 0.0175203 -0.811719 -12.7463 9.98628 5.91981 -12.7916 15.2617 8.59287 -0.0 0.0 -0.0 1.03268 23.2256 4.10908 -30.9012 -31.2535 63.3191 0.192433 -5.44545 0.00915146 -8.59119 -0.380702 1.02922 1.36986 21.6373 16.9479 -0.0 0.0 -0.0 11.8854 6.07668 -23.95 20.6342 -9.93084 -70.4862 2.9261 55.3876 -1.53608 -31.929 2.13653 -3.42284 9.2141 21.9566 -60.4392 0.0 0.0 0.0 38.3975 -9.34711 -6.19379 -10.0694 0.281835 1.51764 9.01008 -6.81771 -1.32886 -20.6618 0.0 0.0 -0.0 0.0 -0.0 -12.3194 16.6442 -7.81213 5.45467 0.262738 0.795285 41.6141 -13.7416 5.05608 -23.6398 0.0 0.0 0.0 0.0 0.0 
3293.52219644 692.938 -1459.70599075 -142.642031368 78.5783063473 145.161278516 2.812 -0.0117743 -0.978741 2.81253 0.0505264 -0.977507 2.81151 0.208206 -0.956414 2.81024 0.0545531 -0.977291 -12.2216 9.6857 5.61898 -12.2566 14.7994 8.15017 -0.0 0.0 -0.0 1.13071 23.1812 4.24067 -30.8049 -31.0156 64.8611 0.210461 -5.95209 0.0109415 -7.26777 -0.312042 0.874513 1.87171 22.6131 20.3484 -0.0 0.0 -0.0 11.1867 4.98899 -22.3794 19.7011 -7.48242 -71.6835 3.18434 57.615 -1.75147 -32.9154 2.23114 -3.50682 9.16065 21.13 -60.9253 0.0 0.0 0.0 37.1836 -8.81697 -5.76675 -7.00851 0.224473 1.05151 8.15862 -7.69483 -1.21202 -21.2081 0.0 0.0 -0.0 0.0 -0.0 -13.9314 16.6992 -7.10086 3.80894 0.175488 0.557969 42.0651 -11.8541 5.07092 -23.3079 0.0 0.0 0.0 0.0 0.0 
3254.1421388 689.244 -1444.46051994 -142.628448214 78.6490200505 145.329484829 2.76142 -0.0886761 -1.07374 2.76206 -0.0201755 -1.07721 2.76228 0.155497 -1.06612 2.7607 -0.0148173 -1.07729 -11.7805 9.57435 5.68531 -11.7987 14.4774 8.12582 -0.0 0.0 -0.0 1.27268 22.5654 4.3917 -30.0183 -30.8418 66.1059 0.266021 -7.50729 0.017453 -4.98166 -0.201936 0.60373 2.68103 23.1722 25.6628 -0.0 0.0 -0.0 10.3349 2.36575 -20.4583 18.636 -6.03267 -73.4238 3.38285 59.1597 -1.92053 -34.3237 2.36871 -3.6239 9.23948 20.5048 -62.7909 0.0 0.0 0.0 35.401 -8.34241 -5.3288 -4.81953 0.168215 0.72031 3.83389 -6.47344 -0.574366 -20.0526 0.0 0.0 -0.0 0.0 -0.0 -16.9358 16.9925 -6.36405 3.08229 0.139146 0.452422 41.4508 -10.6471 5.00703 -23.0976 0.0 0.0 0.0 0.0 0.0 
